<svg xmlns="http://www.w3.org/2000/svg" xmlns:xlink="http://www.w3.org/1999/xlink" width="38.019" height="128.865" viewBox="0 0 38.019 128.865"><defs><style>.a{fill:#245aa3;}.b{opacity:0.29;fill:url(#a);}.c{fill:url(#b);}</style><linearGradient id="a" x1="-13.638" y1="1.809" x2="18.971" y2="1.809" gradientUnits="objectBoundingBox"><stop offset="0" stop-color="#245aa3"/><stop offset="1" stop-color="#1c4479"/></linearGradient><linearGradient id="b" y1="0.5" x2="1" y2="0.5" gradientUnits="objectBoundingBox"><stop offset="0" stop-color="#5ca3e6"/><stop offset="1" stop-color="#125fa7"/></linearGradient></defs><g transform="translate(-169.209 -661.387)"><g transform="translate(169.209 739.997)"><path class="a" d="M0,46.588a.728.728,0,0,1,.011-.123H0V-75H38.012V46.464h0a.728.728,0,0,1,.011.123c0,2.025-8.51,3.667-19.009,3.667S0,48.613,0,46.588Z"/><path class="b" d="M0,46.588a.728.728,0,0,1,.011-.123H0V-75H38.012V46.464h0a.728.728,0,0,1,.011.123c0,2.025-8.51,3.667-19.009,3.667S0,48.613,0,46.588Z"/></g><ellipse class="c" cx="19.009" cy="3.668" rx="19.009" ry="3.668" transform="translate(169.209 661.387)"/></g></svg>